<?xml version="1.0" standalone="no"?>
<!DOCTYPE svg PUBLIC "-//W3C//DTD SVG 20010904//EN"
 "http://www.w3.org/TR/2001/REC-SVG-20010904/DTD/svg10.dtd">
<svg version="1.0" xmlns="http://www.w3.org/2000/svg"
 width="565.000000pt" height="694.000000pt" viewBox="0 0 565.000000 694.000000"
 preserveAspectRatio="xMidYMid meet">

<g transform="translate(0.000000,694.000000) scale(0.100000,-0.100000)"
fill="#000000" stroke="none">
<path d="M2254 6755 c-127 -28 -260 -113 -339 -217 -97 -128 -125 -225 -125
-437 l0 -151 -820 0 -820 0 0 -205 0 -205 209 0 210 0 5 -52 c4 -29 85 -1101
181 -2383 165 -2210 175 -2334 199 -2410 73 -231 258 -403 496 -461 81 -20
2639 -20 2720 0 237 58 423 230 496 461 24 76 34 200 199 2410 96 1282 177
2354 181 2383 l5 52 210 0 209 0 0 205 0 205 -820 0 -820 0 0 151 c0 104 -5
170 -15 211 -60 228 -232 396 -455 443 -98 21 -1012 21 -1106 0z m1085 -428
c67 -44 81 -86 81 -244 l0 -133 -610 0 -610 0 0 133 c1 175 24 227 121 266 15
6 215 9 500 8 l475 -2 43 -28z m1293 -829 c-2 -24 -81 -1086 -176 -2360 l-174
-2317 -28 -51 c-34 -62 -90 -113 -143 -128 -28 -9 -374 -12 -1312 -12 -1211 0
-1276 1 -1314 19 -58 26 -101 65 -125 116 -19 40 -34 217 -195 2367 -96 1278
-175 2342 -177 2366 l-3 42 1825 0 1825 0 -3 -42z"/>
<path d="M1790 3085 l0 -1635 205 0 205 0 0 1635 0 1635 -205 0 -205 0 0
-1635z"/>
<path d="M2610 3085 l0 -1635 200 0 200 0 0 1635 0 1635 -200 0 -200 0 0
-1635z"/>
<path d="M3420 3085 l0 -1635 205 0 205 0 0 1635 0 1635 -205 0 -205 0 0
-1635z"/>
</g>
</svg>
