<?xml version="1.0" standalone="no"?>
<!DOCTYPE svg PUBLIC "-//W3C//DTD SVG 20010904//EN"
 "http://www.w3.org/TR/2001/REC-SVG-20010904/DTD/svg10.dtd">
<svg version="1.0" xmlns="http://www.w3.org/2000/svg"
 width="512.000000pt" height="512.000000pt" viewBox="0 0 512.000000 512.000000"
 preserveAspectRatio="xMidYMid meet">

<g transform="translate(0.000000,512.000000) scale(0.100000,-0.100000)"
fill="#000000" stroke="none">
<path d="M1343 4920 c-546 -47 -1016 -387 -1224 -885 -110 -264 -142 -558 -93
-860 63 -390 284 -799 678 -1255 213 -245 649 -668 1151 -1115 105 -93 287
-264 405 -381 313 -308 287 -308 600 0 118 117 301 288 405 381 965 859 1396
1337 1640 1817 209 410 264 811 165 1203 -235 936 -1285 1379 -2160 913 -108
-57 -223 -136 -299 -204 l-51 -46 -51 46 c-301 271 -756 421 -1166 386z m330
-315 c173 -31 356 -104 509 -203 42 -28 125 -98 185 -155 123 -118 136 -127
193 -127 57 0 70 9 193 127 160 154 312 246 514 312 589 192 1215 -84 1451
-639 69 -162 93 -288 93 -482 -1 -422 -181 -805 -615 -1308 -210 -242 -645
-663 -1141 -1104 -104 -93 -259 -237 -342 -320 l-153 -151 -152 151 c-84 83
-238 227 -343 320 -1137 1010 -1568 1530 -1709 2058 -37 140 -48 219 -48 366
1 315 106 587 312 804 175 184 398 305 649 350 104 19 297 19 404 1z"/>
<path d="M1392 4374 c-403 -68 -718 -356 -824 -752 -12 -47 -22 -125 -25 -198
l-6 -122 40 -43 c37 -39 45 -43 99 -47 50 -3 64 0 93 20 47 32 71 81 71 146 0
115 48 273 116 379 125 196 319 305 586 328 96 8 135 32 162 97 23 56 16 104
-21 149 -51 61 -123 71 -291 43z"/>
</g>
</svg>
