<svg width="325" height="94" viewBox="0 0 325 94" fill="none" xmlns="http://www.w3.org/2000/svg">
<g clip-path="url(#clip0)">
<path fill-rule="evenodd" clip-rule="evenodd" d="M44.5108 58.5467C47.2796 55.1631 50.0064 51.6948 52.6075 48.142C55.5021 44.2931 58.3968 40.4865 61.2915 36.6798C60.2846 35.1995 59.8651 33.4654 59.8651 31.6467C59.8651 29.7856 60.2427 27.9669 60.9558 26.2751C61.6271 24.4987 62.55 22.8068 63.6408 21.2419C64.6896 19.8039 65.9062 18.4927 67.3325 17.4776C68.5072 16.6317 69.8496 15.9549 71.3179 15.9549C71.8633 15.9549 72.1989 16.2933 72.1989 16.8432C72.1989 17.3507 71.8213 17.6468 71.4018 17.816C71.3599 17.816 71.3599 17.816 71.3599 17.816C70.1433 18.1543 69.0525 18.7465 68.0457 19.5501C67.0388 20.3537 66.1159 21.3688 65.3608 22.4685C64.6056 23.5682 64.0183 24.7947 63.5569 26.1059C63.1793 27.3325 62.9276 28.6437 62.9276 29.9548C62.9276 31.2237 63.1373 32.4503 63.7247 33.5923C66.913 29.4473 70.2272 25.3869 73.6253 21.4111C76.9395 17.5622 80.4634 13.8825 84.281 10.5411C87.5952 7.62269 91.1611 5.00035 95.0626 2.92786C98.3768 1.15144 101.985 0.00946045 105.802 0.00946045C107.816 0.00946045 110.375 0.30553 111.969 1.70129C113.312 2.84327 113.899 4.40821 113.899 6.22693C113.899 8.4686 113.102 10.7526 112.095 12.6982C110.795 15.3628 109.074 17.816 107.229 20.0999C105.047 22.7646 102.572 25.2177 99.971 27.5017C97.2021 29.9125 94.1816 32.1119 91.0352 33.9729C87.8889 35.8339 84.5747 37.3989 81.1346 38.5832C77.8204 39.7251 74.3804 40.3596 70.8984 40.3596C69.3042 40.3596 67.5842 40.2327 66.074 39.7251C64.9832 39.3868 63.9344 38.9638 63.0115 38.2871C60.3266 41.7553 57.6417 45.2236 54.9568 48.6918C52.6494 51.6948 50.2582 54.6978 47.8669 57.6585C51.307 56.8126 54.8309 56.2205 58.3548 55.7975C62.8856 55.2054 67.4164 54.9939 71.9472 54.9939C73.6253 54.9939 75.3033 55.0362 76.9814 55.0785C79.037 55.1208 81.0507 55.2054 83.0644 55.29C85.162 55.3745 87.2596 55.4591 89.3572 55.5437C91.245 55.586 93.1328 55.6706 95.0207 55.7975C96.447 55.8821 97.8734 55.9244 99.2997 56.009C100.013 56.009 100.684 56.0513 101.397 56.0513C102.027 56.0513 103.495 56.0936 103.495 57.0664C103.495 57.6162 103.201 58.1238 102.782 58.4621C102.32 58.8428 101.859 59.0966 101.313 59.2658C100.768 59.4772 100.223 59.6464 99.6353 59.731C99.1739 59.8156 98.6705 59.9002 98.209 59.9002C97.1182 59.9002 96.0275 59.8579 94.9787 59.8156C92.7553 59.731 90.5738 59.6887 88.3923 59.6464C85.4976 59.5618 82.6449 59.4772 79.7502 59.4349C76.6038 59.3503 73.4155 59.3081 70.2691 59.3081C65.4866 59.3081 60.6622 59.4349 55.9216 59.9002C52.1879 60.1963 48.4542 60.7038 44.8044 61.4228C43.1683 63.3684 41.4903 65.2717 39.7702 67.0905C38.26 68.6554 36.6658 70.178 35.0297 71.5738C33.6872 72.7158 32.2189 73.7309 30.6667 74.5345C29.4921 75.1689 28.1496 75.5919 26.7652 75.5919C24.8774 75.5919 21.7729 75.3381 21.7729 72.7581C21.7729 71.5738 22.6539 70.3049 23.3671 69.4167C24.6257 67.9787 26.2618 66.7098 27.8559 65.6947C30.1213 64.2144 32.5545 62.9878 35.0297 61.8881C38.0922 60.5346 41.2805 59.4772 44.5108 58.5467ZM102.152 31.266C103.159 31.266 103.831 31.7312 103.831 32.7886C103.831 33.2539 103.705 33.6768 103.537 34.0998C103.327 34.5228 103.075 34.9457 102.782 35.3264C102.446 35.707 102.11 36.0031 101.733 36.2992C101.313 36.553 100.894 36.7221 100.39 36.7221C99.3836 36.7221 98.7124 36.2146 98.7124 35.1572C98.7124 34.7342 98.8383 34.269 99.048 33.8883C99.2578 33.4654 99.5095 33.0424 99.8032 32.6618C100.097 32.2811 100.474 31.9427 100.894 31.6889C101.271 31.4352 101.691 31.266 102.152 31.266ZM104.46 47.2115C105.131 46.9577 105.844 46.6616 106.557 46.3656C106.809 46.2387 107.061 46.1541 107.313 46.0272C108.235 44.716 109.158 43.4049 110.123 42.0937C112.053 39.4291 114.109 36.8067 116.206 34.2267C118.639 31.2237 121.157 28.3053 123.716 25.4715C126.359 22.5108 129.127 19.5924 131.938 16.8009C134.623 14.1785 137.434 11.6831 140.37 9.35681C142.846 7.36891 145.531 5.5502 148.341 4.11214C150.439 3.01246 152.872 2.08195 155.305 2.08195C158.158 2.08195 160.004 3.39312 160.004 6.43841C160.004 9.06074 158.787 11.5562 157.277 13.671C155.305 16.4625 152.872 18.9579 150.313 21.2419C147.251 23.9488 143.978 26.4443 140.622 28.7705C137.098 31.2237 133.49 33.55 129.799 35.7493C126.359 37.8218 122.877 39.8097 119.311 41.6707C116.5 43.1511 113.689 44.5891 110.836 45.9849C110.627 46.4079 110.249 47.1269 110.249 47.5498C112.515 46.3656 114.78 45.1813 117.087 44.0816C118.933 43.2357 120.821 42.3898 122.709 41.6284C123.967 41.1209 125.729 40.4865 127.072 40.4865C128.121 40.4865 129.253 40.8248 129.253 42.0937C129.253 42.7281 128.876 43.4049 128.498 43.9124C127.995 44.6314 127.282 45.3082 126.568 45.858C125.687 46.577 124.681 47.1692 123.674 47.6767C122.457 48.3112 121.157 48.7764 119.856 49.1571C119.814 49.1571 119.814 49.1571 119.772 49.1571C119.772 49.1994 119.814 49.2417 119.814 49.284C119.94 49.4954 120.359 49.6646 120.569 49.7915C121.157 50.003 121.996 50.0453 122.583 50.0453C123.254 50.0453 124.009 49.9184 124.681 49.7915C125.603 49.58 126.484 49.3263 127.407 49.0725C128.372 48.7764 129.337 48.4803 130.302 48.142C131.141 47.8459 131.98 47.5498 132.819 47.2115C133.49 46.9577 134.204 46.6616 134.917 46.3656C135.001 46.3233 135.043 46.3233 135.127 46.281C135.336 46.0272 135.588 45.8157 135.84 45.5619C136.301 45.1813 136.763 44.8429 137.224 44.5046C137.224 44.4623 137.224 44.4623 137.224 44.4623C136.721 44.3777 136.175 44.2931 135.63 44.2085C135.21 44.1239 134.665 43.997 134.371 43.6163C134.162 43.3203 134.036 43.0242 134.036 42.6858C134.036 42.2629 134.162 41.8399 134.455 41.5439C134.581 41.3324 134.749 41.1209 134.917 40.9517C134.959 40.9517 134.959 40.9094 135.001 40.9094C136.091 40.1904 137.224 39.5982 138.357 39.0061C139.615 38.414 140.916 37.8641 142.216 37.3566C143.349 36.9336 144.524 36.5107 145.698 36.2146C146.328 36.0031 147.293 35.7493 147.964 35.7493C148.509 35.7493 149.013 35.8762 149.474 36.13C150.061 36.4261 150.313 36.9759 150.313 37.6103C150.313 37.991 150.103 38.3294 149.852 38.6254C149.558 38.9215 149.264 39.1753 148.929 39.3868C148.551 39.6405 148.173 39.8097 147.754 39.9789C147.418 40.1058 146.999 40.2327 146.621 40.2327C146.328 40.2327 146.076 40.1481 145.782 40.0212C145.447 39.8943 145.237 39.556 145.237 39.1753C145.237 38.8369 145.363 38.5409 145.531 38.2448C145.489 38.2448 145.447 38.2448 145.405 38.2448C145.195 38.2871 145.027 38.3294 144.817 38.3294C144.272 38.4986 143.727 38.6677 143.223 38.8792C142.51 39.133 141.839 39.4291 141.126 39.7674C140.496 40.0635 139.867 40.3596 139.238 40.6556C138.902 40.8248 138.525 41.0363 138.231 41.2478C138.189 41.2478 138.105 41.3324 138.105 41.3324C138.105 41.3747 138.147 41.417 138.189 41.417C138.357 41.417 138.525 41.4593 138.65 41.4593C138.944 41.5016 139.28 41.5016 139.573 41.5439C139.867 41.5439 140.203 41.5439 140.496 41.5439C140.706 41.5439 140.958 41.5439 141.168 41.5439L141.21 41.5861C141.587 41.5861 142.216 41.6707 142.426 42.0514C142.594 42.3052 142.636 42.6858 142.636 42.9819C142.636 43.278 142.594 43.574 142.468 43.8278C142.3 44.3354 141.713 44.5046 141.251 44.5891C140.287 44.8429 139.364 45.2236 138.525 45.7734C137.769 46.2387 137.308 46.8308 137.308 47.719C137.308 48.3112 137.686 48.6495 138.189 48.861C138.776 49.1148 139.448 49.284 140.119 49.284C141.377 49.284 142.678 49.0725 143.894 48.7341C145.195 48.4381 146.453 48.0574 147.712 47.6344C149.054 47.1692 150.397 46.6616 151.739 46.0695C151.781 46.0695 151.823 46.0695 151.865 46.0695C152.159 46.0695 152.327 46.1964 152.495 46.4502C152.578 46.577 152.62 46.7885 152.62 46.9577C152.62 47.2961 152.495 47.5498 152.243 47.719C152.243 47.7613 152.201 47.7613 152.159 47.7613C150.313 48.5649 148.425 49.284 146.495 49.9184C144.859 50.4682 143.223 50.9335 141.587 51.3988C140.245 51.7794 138.692 52.0755 137.266 52.0755C136.343 52.0755 135.462 51.9063 134.707 51.3142C134.036 50.8066 133.7 50.1299 133.7 49.2417C133.7 49.0725 133.7 48.9033 133.742 48.6918L133.029 48.9879C131.435 49.58 129.841 50.1722 128.204 50.722C126.778 51.145 125.31 51.5679 123.841 51.9486C122.541 52.287 121.115 52.4984 119.772 52.4984C118.556 52.4984 116.961 52.3716 115.997 51.6102C115.325 51.0604 114.78 50.3837 114.612 49.5377C114.612 49.5377 114.612 49.4954 114.612 49.4531C114.612 48.861 114.822 48.3112 115.367 48.0574C115.829 47.8459 116.332 47.7613 116.836 47.7613C117.884 47.7613 118.891 47.5498 119.856 47.2115C120.863 46.8731 121.828 46.4079 122.793 45.858C123.548 45.3928 124.303 44.8852 124.974 44.2508C125.184 44.0816 125.729 43.5317 125.729 43.2357C125.645 43.1511 125.268 43.1511 125.142 43.1511C123.925 43.1511 122.541 43.574 121.408 43.997C119.73 44.5891 118.052 45.3505 116.416 46.1541C114.57 47.0423 112.766 48.0151 110.962 49.0302C109.242 50.003 107.564 50.9758 105.844 51.9486C105.844 51.9486 105.844 51.9909 105.802 51.9909C105.634 52.0755 105.425 52.0755 105.215 52.0755C104.712 52.0755 104.376 51.7794 104.376 51.2719C104.376 50.6797 105.131 49.4109 105.634 48.5649L104.67 48.9879C104.04 49.2417 103.453 49.4954 102.866 49.7492C102.069 50.0453 101.271 50.3837 100.432 50.6374C99.6353 50.9335 98.7963 51.1873 97.9573 51.3988C97.2441 51.5679 96.447 51.7371 95.7338 51.7371C95.1046 51.7371 94.5172 51.6102 94.0138 51.2719C93.6362 50.9758 93.3426 50.6374 93.0909 50.2568C92.8392 49.9184 92.6714 49.5377 92.5875 49.1148C92.5455 48.861 92.4616 48.5226 92.4616 48.2689C92.4616 47.6767 92.5875 47.0846 92.7972 46.5347C92.4616 46.7039 92.1679 46.9154 91.8323 47.0846C91.3709 47.2961 90.8255 47.5921 90.3221 47.7613C89.9445 47.9305 89.6089 48.0574 89.2313 48.1843C88.8118 48.3535 88.3923 48.5226 88.0147 48.6918C87.9308 48.7341 87.8889 48.7341 87.8469 48.7341C87.5952 48.7341 87.3854 48.5649 87.2596 48.3535C87.1337 48.1843 87.0918 48.0151 87.0918 47.8036C87.0918 47.5498 87.1757 47.2538 87.4693 47.0846C87.8469 46.9577 88.2245 46.7885 88.5601 46.6616C88.8957 46.5347 89.1894 46.4079 89.525 46.2387C90.4479 45.7734 91.4128 45.2659 92.2938 44.6737C92.2938 44.6737 92.2938 44.6737 92.3357 44.6737C93.007 44.2931 93.7621 43.7855 94.3494 43.1934C94.6431 42.8973 94.9787 42.5167 95.1046 42.0937C95.2304 41.7553 95.3982 41.417 95.608 41.1209C95.8177 40.8248 96.1114 40.6133 96.489 40.6133C96.9085 40.6133 97.2441 40.7402 97.5797 40.9517C97.9992 41.2055 98.167 41.6284 98.167 42.0937C98.167 42.3898 98.0412 42.6435 97.9153 42.8973C97.9153 42.8973 97.9153 42.8973 97.8734 42.8973C97.7475 43.1511 97.5797 43.4049 97.4119 43.6586C97.1602 44.0393 96.9504 44.42 96.7407 44.8006C96.5309 45.2659 96.3631 45.7311 96.1953 46.2387C96.0694 46.6616 95.9855 47.1269 95.9855 47.5921C95.9855 48.0151 96.1114 48.3958 96.4051 48.6918C96.7826 49.0725 97.4119 49.1148 97.9153 49.1148C98.4607 49.1148 99.0061 49.0302 99.5514 48.9033C100.181 48.7341 100.81 48.5226 101.439 48.3112C102.027 48.142 102.614 47.9305 103.201 47.6767C103.621 47.5498 104.04 47.3807 104.46 47.2115ZM200.361 48.6495H201.83C203.801 48.6495 205.815 48.6072 207.829 48.6072C209.968 48.5649 212.108 48.5649 214.247 48.5226C216.051 48.5226 217.855 48.4803 219.659 48.4381C220.666 48.4381 221.673 48.4381 222.68 48.4381C223.309 48.4381 224.064 48.6072 224.064 49.4109C224.064 50.4682 223.435 51.2296 222.596 51.7794C221.715 52.3293 220.75 52.6676 219.701 52.6676C218.191 52.6676 216.639 52.6676 215.128 52.6676C213.241 52.6676 211.353 52.6253 209.465 52.6253C207.325 52.583 205.186 52.583 203.004 52.5407C200.781 52.5407 198.599 52.4984 196.376 52.4984C194.698 54.148 192.936 55.7129 191.174 57.2356C189.706 58.5467 188.153 59.8156 186.601 60.9999C186.266 61.2959 185.846 61.5074 185.343 61.5074C185.091 61.5074 184.797 61.4228 184.546 61.3805C184.126 61.2537 183.749 60.9999 183.749 60.5346C183.749 59.9848 184.839 58.9697 185.217 58.589C185.217 58.589 185.217 58.589 185.259 58.589C186.35 57.6585 187.44 56.6434 188.531 55.6283C189.664 54.5709 190.796 53.5135 191.929 52.4561C189.915 52.4561 187.944 52.4138 185.93 52.4138C183.832 52.3716 181.693 52.3716 179.595 52.3293C177.917 52.3293 176.197 52.287 174.477 52.287C173.303 52.287 172.128 52.287 170.953 52.287C169.695 52.287 168.478 52.3293 167.22 52.3293C165.961 52.3716 164.744 52.3716 163.528 52.4138C162.563 52.4138 161.556 52.4561 160.591 52.4984C160.088 52.4984 159.542 52.4984 159.039 52.4984C158.536 52.4984 158.074 52.2447 158.074 51.6948C158.074 51.2296 158.242 50.8066 158.536 50.4682C158.787 50.1299 159.081 49.7915 159.417 49.5377C159.794 49.284 160.13 49.0302 160.549 48.861C160.843 48.6918 161.22 48.5649 161.514 48.5649L195.998 48.6495C197.886 46.8308 199.732 44.9698 201.62 43.1088C203.55 41.1209 205.48 39.133 207.409 37.1028C209.255 35.1572 211.017 33.1693 212.737 31.1391C214.289 29.3204 215.758 27.4594 217.1 25.5138C218.191 23.9065 219.24 22.257 220.079 20.5652C220.624 19.4232 221.128 18.0697 221.128 16.8009C221.128 14.5169 220.414 12.529 218.862 10.8372C217.184 9.01845 215.003 7.70728 212.737 6.77677C209.926 5.59249 206.906 4.87347 203.927 4.45051C200.529 3.98526 197.131 3.73148 193.733 3.73148C190.125 3.73148 186.559 3.98526 182.993 4.45051C179.847 4.87347 176.659 5.5079 173.596 6.43841C171.331 7.15744 168.982 8.08794 167.01 9.4414C165.835 10.245 164.619 11.387 164.619 12.9097C164.619 14.0939 165.751 14.8976 166.632 15.4474C167.01 15.7012 167.262 16.0395 167.262 16.5048C167.262 17.0546 166.926 17.393 166.339 17.393C166.297 17.393 166.255 17.393 166.213 17.393C165.583 17.1392 164.996 16.8432 164.409 16.4625C163.947 16.1664 163.528 15.7435 163.15 15.2359C162.731 14.6861 162.563 14.0093 162.563 13.2903C162.563 11.0063 163.905 9.22993 165.625 7.83417C167.849 6.05775 170.618 4.74658 173.303 3.73148C176.743 2.50491 180.35 1.65899 184 1.06685C187.944 0.474713 191.971 0.136348 195.998 0.136348C199.522 0.136348 203.004 0.432418 206.486 0.982262C209.591 1.48981 212.653 2.29343 215.506 3.6046C217.981 4.74658 220.205 6.26923 221.925 8.38401C223.603 10.4142 224.358 12.8674 224.358 15.4897C224.358 17.7314 223.141 20.2691 222.092 22.1301C220.414 25.1331 218.443 27.9669 216.345 30.6739C213.87 33.9306 211.185 37.1028 208.458 40.1058C205.815 43.0242 203.13 45.858 200.361 48.6495ZM237.447 47.1692C237.908 47.5921 238.537 47.7613 239.209 47.7613C239.838 47.7613 240.509 47.719 241.18 47.5498C241.852 47.423 242.523 47.2961 243.152 47.1269C243.698 46.9577 244.243 46.7885 244.746 46.6193C245.627 45.2659 246.634 43.997 247.767 42.8127C248.942 41.5861 250.242 40.4442 251.626 39.4714C252.591 38.8369 253.892 38.0333 255.066 38.0333C255.402 38.0333 255.738 38.1602 255.989 38.3717C256.241 38.5832 256.451 38.8369 256.451 39.1753C256.451 39.2176 256.451 39.2176 256.451 39.2599C256.87 39.133 257.332 39.0484 257.751 39.0484C258.842 39.0484 259.513 39.6405 259.513 40.7402C259.513 41.7976 259.01 42.9396 258.507 43.8278C257.835 45.0121 256.996 46.1541 256.115 47.1692C256.577 47.5921 257.164 47.7613 257.835 47.7613C258.507 47.7613 259.178 47.719 259.807 47.5498C260.478 47.423 261.149 47.2961 261.821 47.1269C262.282 47 262.744 46.8308 263.205 46.6616C263.331 45.4774 263.834 44.4623 264.673 43.574C265.68 42.5167 266.855 41.6707 268.155 41.0363C269.498 40.3596 270.924 39.8097 272.393 39.4714C273.609 39.133 274.952 38.9215 276.21 38.9215C276.588 38.9215 276.923 39.0484 277.091 39.3445C277.469 38.3717 277.888 37.3566 278.35 36.3838C280.028 32.704 281.958 29.1512 284.139 25.7253C286.279 22.3416 288.628 19.0848 291.229 15.9972C293.578 13.1634 296.095 10.4988 298.822 8.04565C301.046 6.01545 303.479 4.15444 306.122 2.67409C308.051 1.5744 310.359 0.643896 312.582 0.643896C313.715 0.643896 314.722 0.982262 315.351 1.95506C316.064 2.92786 316.19 4.36592 316.19 5.5502C316.19 7.41121 315.267 9.4837 314.386 11.0486C313.044 13.5441 311.408 15.9126 309.73 18.1543C307.59 20.9458 305.325 23.6105 302.933 26.1482C300.332 28.9397 297.606 31.6467 294.795 34.2267C291.984 36.7644 289.131 39.2176 286.153 41.5439C283.552 43.574 280.825 45.5196 277.972 47.2115C277.385 50.0453 277.049 52.9214 277.049 55.8398C277.049 56.3474 277.007 57.0241 276.714 57.447C276.42 57.9123 275.875 58.0392 275.371 58.0392C275.329 58.0392 275.329 58.0392 275.329 58.0392L274.658 57.9546C274.155 57.87 273.777 57.5739 273.609 57.0664C273.441 56.6434 273.399 56.1359 273.399 55.6706C273.399 53.5558 273.609 51.4833 273.945 49.3686C272.938 49.8761 271.847 50.2991 270.756 50.6374C269.708 50.9758 268.533 51.2296 267.4 51.2296C266.561 51.2296 265.68 51.1027 264.967 50.5951C264.464 50.2145 264.002 49.7492 263.709 49.1571C263.583 48.9033 263.499 48.6495 263.415 48.3958C261.485 49.1571 259.304 49.7915 257.29 49.7915C256.199 49.7915 255.192 49.5377 254.437 48.8187C253.263 49.9607 251.92 50.9335 250.494 51.7371C249.025 52.583 247.389 53.0906 245.711 53.0906C245.082 53.0906 244.411 52.9637 243.907 52.5407C243.32 52.0755 243.194 51.3142 243.194 50.5951C243.194 50.003 243.32 49.4109 243.53 48.861C241.978 49.4109 240.258 49.7915 238.621 49.7915C237.573 49.7915 236.566 49.5377 235.769 48.8187C234.594 49.9607 233.252 50.9335 231.825 51.7371C230.357 52.583 228.763 53.0906 227.043 53.0906C226.413 53.0906 225.742 52.9637 225.239 52.5407C224.693 52.0755 224.526 51.3142 224.526 50.5951C224.526 49.3263 225.239 47.9305 225.91 46.8731C226.833 45.4351 227.924 44.0816 229.098 42.8127C230.273 41.5861 231.574 40.4442 232.958 39.4714C233.923 38.8369 235.223 38.0333 236.44 38.0333C236.776 38.0333 237.069 38.1602 237.363 38.3717C237.573 38.5832 237.824 38.8369 237.824 39.1753C237.824 39.2176 237.824 39.2176 237.824 39.2599C238.244 39.133 238.663 39.0484 239.125 39.0484C240.216 39.0484 240.887 39.6405 240.887 40.7402C240.887 41.7976 240.341 42.9396 239.838 43.8278C239.209 45.0121 238.37 46.1541 237.447 47.1692ZM255.486 39.8097C255.444 39.8097 255.444 39.8097 255.444 39.8097C254.773 39.8097 253.808 40.4442 253.304 40.8248C252.214 41.5861 251.249 42.4744 250.326 43.4049C249.403 44.3354 248.564 45.3505 247.809 46.4502C247.389 47.1269 246.844 48.142 246.844 48.9456C246.844 49.7915 247.18 50.1299 247.977 50.1299C248.9 50.1299 249.864 49.7492 250.662 49.284C251.626 48.7341 252.549 48.0997 253.388 47.3807C253.053 46.6616 252.969 45.858 252.969 45.0967C252.969 44.3777 253.095 43.6586 253.304 42.9396C253.514 42.2629 253.808 41.5861 254.269 40.994C254.605 40.5288 255.025 40.1058 255.486 39.8097ZM276.546 40.6979C276.462 40.6979 276.378 40.6979 276.294 40.6979C276.252 40.6979 276.252 40.6979 276.21 40.6979L275.833 40.6556C274.784 40.6556 273.777 40.8248 272.812 41.1209C271.721 41.4593 270.714 41.8822 269.75 42.4321C268.911 42.9396 268.113 43.574 267.484 44.3777C266.981 45.0121 266.687 45.7311 266.687 46.5347C266.687 46.9577 266.771 47.3807 267.065 47.719C267.316 48.0151 267.61 48.2266 267.988 48.3958C268.449 48.5649 268.911 48.6495 269.414 48.6495C271.134 48.6495 273.064 47.8459 274.574 47.0423C275.119 44.8852 275.791 42.7704 276.546 40.6979ZM236.817 39.8097H236.776C236.146 39.8097 235.139 40.4442 234.636 40.8248C233.587 41.5861 232.58 42.4744 231.657 43.4049C230.734 44.3354 229.895 45.3505 229.182 46.4502C228.721 47.1269 228.175 48.142 228.175 48.9456C228.175 49.7915 228.511 50.1299 229.35 50.1299C230.273 50.1299 231.196 49.7492 231.993 49.284C232.958 48.7341 233.881 48.0997 234.72 47.3807C234.426 46.6616 234.3 45.858 234.3 45.0967C234.3 44.3777 234.426 43.6586 234.636 42.9396C234.888 42.2629 235.181 41.5861 235.601 40.994C235.936 40.5288 236.356 40.1058 236.817 39.8097ZM65.193 35.4956C65.9062 36.13 66.7871 36.5953 67.7101 36.9336C69.0106 37.3989 70.5628 37.5681 71.9472 37.5681C74.8838 37.5681 77.7785 36.9759 80.5473 36.0454C83.5678 34.988 86.4206 33.6346 89.1474 32.0273C91.9582 30.3778 94.6011 28.4745 97.0343 26.402C99.3836 24.4141 101.565 22.257 103.537 19.9307C105.173 17.9428 106.725 15.7858 107.9 13.5018C108.781 11.8523 109.494 9.90666 109.494 8.00335C109.494 6.4807 108.991 5.25413 107.816 4.32362C106.348 3.18164 103.956 2.97016 102.152 2.97016C99.2158 2.97016 96.3631 4.15444 93.888 5.67709C90.5738 7.70728 87.5113 10.245 84.7005 12.9519C81.2185 16.2933 77.9882 19.8461 74.9258 23.4836C71.6116 27.4171 68.3813 31.4352 65.193 35.4956ZM41.4903 62.1419C39.2668 62.6494 37.0014 63.2838 34.8619 64.1298C33.058 64.8065 31.2121 65.6101 29.576 66.6252C28.5272 67.2596 27.3945 68.0633 26.5974 68.9938C26.1779 69.459 25.6745 70.178 25.6745 70.8548C25.6745 72.1237 27.3106 72.2082 28.2755 72.2082C30.5409 72.2082 32.8062 70.6856 34.4843 69.2475C37.0014 67.0905 39.3088 64.6373 41.4903 62.1419ZM112.263 43.574C114.612 42.4744 116.878 41.2478 119.143 39.9789C122.457 38.1602 125.687 36.2146 128.876 34.1844C132.274 32.0273 135.588 29.7433 138.86 27.3325C141.881 25.0908 144.859 22.6377 147.586 20.0153C149.852 17.8583 152.033 15.532 153.837 12.9519C155.054 11.1755 156.144 9.01845 156.144 6.77677C156.144 6.18463 155.977 5.67709 155.599 5.21183C155.137 4.74658 154.508 4.61969 153.879 4.61969C152.285 4.61969 150.649 5.21183 149.222 5.88856C147.251 6.86137 145.321 8.08794 143.517 9.39911C141.377 10.9641 139.28 12.7405 137.308 14.5592C135.127 16.5471 132.987 18.6619 130.931 20.7767C128.834 22.976 126.778 25.2177 124.764 27.5017C122.877 29.6588 121.031 31.8581 119.227 34.1421C117.675 36.0877 116.164 38.0756 114.696 40.1058C113.857 41.2478 113.06 42.3898 112.263 43.574ZM236.608 45.5619C237.153 44.9698 237.657 44.3354 238.076 43.6586C238.37 43.1934 238.789 42.4744 238.789 41.8822C238.789 41.3747 238.37 41.2901 237.908 41.2901C237.447 41.2901 237.153 41.7553 236.943 42.0937C236.608 42.7704 236.482 43.4895 236.482 44.2508C236.482 44.5891 236.482 44.9275 236.524 45.2659C236.566 45.3505 236.566 45.4774 236.608 45.5619ZM255.234 45.5619C255.78 44.9698 256.283 44.3354 256.703 43.6586C257.038 43.1934 257.458 42.4744 257.458 41.8822C257.458 41.3747 256.996 41.2901 256.577 41.2901C256.115 41.2901 255.78 41.7553 255.612 42.0937C255.276 42.7704 255.108 43.4895 255.108 44.2508C255.108 44.5891 255.15 44.9275 255.192 45.2659C255.192 45.3505 255.234 45.4774 255.234 45.5619ZM278.643 44.6737C280.825 43.278 282.964 41.713 285.062 40.1481C287.705 38.0756 290.264 35.9185 292.739 33.6346C295.298 31.266 297.773 28.7705 300.123 26.2328C302.346 23.8642 304.486 21.3265 306.373 18.7042C308.01 16.4625 309.478 14.0939 310.653 11.5985C311.533 9.82207 312.247 7.70728 312.247 5.71938C312.247 5.08495 312.121 4.45051 311.617 4.02755C311.114 3.6046 310.485 3.47771 309.813 3.47771C308.387 3.47771 306.709 4.32362 305.492 5.08495C303.437 6.35382 301.549 8.00335 299.787 9.69518C297.522 11.8523 295.424 14.2208 293.452 16.6317C291.229 19.4232 289.215 22.3416 287.327 25.3869C285.356 28.5591 283.636 31.8581 282.083 35.2418C280.657 38.2871 279.524 41.417 278.643 44.6737ZM5.24396 30.4201C4.8664 29.5319 4.69859 28.5591 4.65664 27.7554C4.15322 21.6226 11.7045 19.4232 16.9904 22.0032C19.4236 23.1452 21.4793 24.7947 23.3252 26.8249C23.8705 27.4594 23.2832 27.8823 23.2832 29.405C23.2832 30.3778 23.2413 31.3083 23.7027 32.408C24.6676 34.6919 27.2686 34.1844 27.7301 32.8309C27.8979 32.2811 27.772 31.6467 27.7301 31.0545C27.6462 29.9125 27.6881 28.7705 27.6881 27.6286C27.6881 27.0787 27.7301 26.5289 27.772 25.979C27.814 25.4292 27.8559 24.7947 27.9398 24.2872C28.5691 20.819 29.0725 18.9579 30.9604 16.0818C32.3448 14.0516 34.736 12.2752 37.337 12.4867C41.0288 12.8251 44.0913 16.8432 43.0425 21.0304C41.9098 25.6407 35.5331 33.2539 33.058 37.5681C32.9321 37.8218 32.7643 38.0756 32.5965 38.3717C31.7994 40.1058 30.373 42.855 31.0443 45.0121C30.3311 44.9275 24.8774 43.4049 23.9544 43.0665C23.5769 42.8973 23.4091 42.8973 23.0734 42.7704L15.4802 39.5982C11.9143 37.8641 6.83813 34.269 5.24396 30.4201ZM0.54537 29.0243C1.46831 31.3083 2.55905 32.8732 4.23712 34.4382C6.29276 36.2992 9.85865 38.8369 12.3758 39.9366L18.9202 42.7704C21.1437 43.7009 28.7369 45.858 30.5828 46.1964C31.7994 46.4502 31.6316 46.4079 32.177 46.9577C34.1067 48.9033 36.7497 47.423 36.2043 46.1118C35.3233 43.997 35.2394 45.3505 34.2746 43.0665C32.9741 39.9366 36.9175 33.8037 38.8892 30.9276L44.1752 23.2721C45.3498 21.538 46.4406 19.9307 46.7762 17.8583C47.4054 14.2208 45.3498 10.2027 42.4132 8.04565C38.8053 5.38102 34.8619 5.67709 31.4638 8.68008C30.0794 9.90666 28.4433 12.2752 27.6881 13.967L26.0101 18.0697C25.9262 18.3658 25.9262 18.4504 25.8423 18.7042L24.8354 22.3839C24.7515 22.8068 24.6676 23.1875 24.5837 23.6528C24.4998 24.0334 24.4579 24.6679 24.29 24.9216C23.7866 24.2449 23.0734 23.5682 22.4861 22.976C20.9339 21.4957 17.8295 19.2963 15.7738 18.7465C14.767 18.4927 14.2636 18.1966 12.7953 17.9851L8.89376 17.9005C6.50251 18.112 3.94346 19.2117 2.22344 20.9035C0.880983 22.257 0.0839007 23.9911 -2.79029e-06 25.8521C-0.0419545 26.7404 0.0839007 28.0092 0.54537 29.0243ZM147.838 80.7097C147.754 80.5828 147.754 80.4136 147.754 80.2444C147.754 79.7792 148.006 79.2293 148.257 78.8487C148.593 78.2988 148.929 77.7913 149.348 77.326C149.726 76.8608 150.145 76.3955 150.565 75.9726C150.816 75.7611 151.236 75.3804 151.53 75.2958H151.572C151.614 75.2958 151.697 75.2535 151.739 75.2535C151.823 75.2112 151.949 75.2112 152.033 75.2112C152.201 75.2112 152.327 75.2535 152.453 75.3804C152.578 75.465 152.62 75.5919 152.62 75.7611C152.62 75.9303 152.453 76.0572 152.369 76.1417C152.201 76.2686 152.075 76.3955 151.907 76.5224C151.739 76.6493 151.572 76.7762 151.446 76.9454C151.404 76.9877 151.362 77.03 151.32 77.03C151.446 77.03 151.614 76.9877 151.781 76.9877C152.075 76.9877 152.327 77.1145 152.495 77.3683C152.62 77.5798 152.704 77.7913 152.704 78.0451C152.704 78.3834 152.62 78.7218 152.495 79.0179C152.411 79.187 152.285 79.3985 152.159 79.5677C152.453 79.4408 152.704 79.3139 152.956 79.1447C153.25 78.9756 153.501 78.7641 153.753 78.5103C154.005 78.2988 154.173 78.0028 154.34 77.7067C154.508 77.4106 154.76 77.03 155.179 77.03C155.347 77.03 155.515 77.0722 155.641 77.1568C155.851 77.2837 155.935 77.4952 155.935 77.7067C155.935 77.8336 155.809 77.9605 155.725 78.0873C155.641 78.2142 155.557 78.3411 155.473 78.468C155.389 78.6795 155.305 78.8487 155.221 79.0601C155.137 79.2716 155.137 79.4831 155.137 79.6946C155.137 79.8215 155.179 79.9061 155.263 79.9907C155.347 80.1175 155.557 80.1175 155.683 80.1175C155.893 80.1175 156.102 80.0752 156.27 80.0329C156.48 79.9907 156.732 79.9061 156.941 79.8215C157.151 79.7792 157.361 79.6946 157.571 79.61C157.738 79.5254 157.864 79.4831 158.032 79.4408C158.242 79.3562 158.452 79.3139 158.619 79.187C158.787 79.1024 158.955 79.0179 159.123 78.9756C159.165 78.9756 159.165 78.9756 159.207 78.9756C159.459 78.9756 159.584 79.187 159.584 79.4408C159.584 79.61 159.5 79.7792 159.333 79.8215L158.2 80.2867C157.99 80.3713 157.738 80.4982 157.529 80.5828C157.235 80.7097 156.941 80.7943 156.648 80.9212C156.354 81.0058 156.06 81.0903 155.725 81.1749C155.473 81.2595 155.179 81.3018 154.886 81.3018C154.676 81.3018 154.424 81.2595 154.215 81.1326C154.089 81.0058 153.921 80.8789 153.837 80.7097C153.753 80.5828 153.669 80.4136 153.669 80.2444C153.627 80.1598 153.627 80.0329 153.627 79.9061C153.627 79.9061 153.627 79.8638 153.627 79.8215C153.459 79.9484 153.292 80.0329 153.082 80.1598C152.536 80.4559 151.907 80.5405 151.278 80.4559C150.942 80.752 150.481 81.048 150.061 81.1749C149.726 81.2595 149.306 81.3018 148.929 81.3018C148.593 81.3018 148.299 81.2172 148.09 81.048C148.09 81.0903 148.09 81.0903 148.09 81.0903C148.09 81.3018 147.964 81.471 147.838 81.5979C147.754 81.6825 147.67 81.7671 147.544 81.8094C147.376 81.9363 147.209 82.0208 147.041 82.1054C146.831 82.2323 146.621 82.3169 146.37 82.4015C146.118 82.4438 145.824 82.4861 145.572 82.4861C144.985 82.4861 144.44 82.3169 143.978 81.9786C143.475 81.5979 143.265 81.0903 143.265 80.4982C143.265 79.8215 143.517 79.1024 143.811 78.5103C144.23 77.6644 144.691 76.8608 145.195 76.0572C145.74 75.1266 146.328 74.1961 146.915 73.3079C147.544 72.3351 148.132 71.4046 148.677 70.4318C149.18 69.5436 149.642 68.6131 150.019 67.6403C150.313 66.879 150.523 66.0754 150.523 65.2294C150.523 64.8488 150.439 64.3835 150.145 64.0875C149.852 63.7914 149.474 63.7068 149.054 63.7068C148.593 63.7914 148.132 64.0452 147.754 64.2989C147.209 64.6796 146.663 65.1449 146.202 65.6101C145.614 66.16 145.069 66.7521 144.524 67.3865C143.978 68.021 143.433 68.6977 142.888 69.3744C142.384 70.0089 141.839 70.6856 141.377 71.3623C140.916 71.9545 140.496 72.5466 140.077 73.1387C139.951 73.3502 139.825 73.5617 139.699 73.7732C139.489 74.1538 139.28 74.5345 139.07 74.9152C138.818 75.3804 138.567 75.8034 138.315 76.2686C138.105 76.7339 137.853 77.1568 137.602 77.6221C137.392 77.9605 137.224 78.2988 137.014 78.6372C136.93 78.8064 136.847 79.0179 136.721 79.187C136.679 79.2716 136.637 79.3985 136.595 79.4831C136.511 79.6946 136.385 79.8215 136.175 79.8638C136.007 79.9061 135.84 79.8638 135.672 79.7369C135.588 79.6523 135.504 79.5677 135.462 79.4408C135.42 79.4408 135.42 79.3985 135.42 79.3985C135.42 79.2716 135.42 79.1024 135.504 78.9756C135.546 78.8487 135.63 78.7641 135.672 78.6795C135.966 78.2565 136.175 77.749 136.385 77.326C136.721 76.607 137.014 75.9303 137.308 75.2535C137.644 74.4499 137.979 73.6886 138.273 72.885C138.567 72.0814 138.902 71.32 139.196 70.5164C139.448 69.882 139.657 69.2052 139.909 68.5708C140.035 68.1479 140.203 67.7672 140.287 67.3442C140.412 67.0059 140.496 66.6252 140.496 66.2868C140.538 65.9908 140.496 65.6524 140.412 65.3563C140.37 65.1449 140.245 64.9334 140.077 64.7642C139.909 64.6373 139.699 64.6373 139.489 64.6796C139.238 64.7219 138.944 64.8488 138.692 64.9757C138.357 65.1872 138.021 65.3986 137.728 65.6524C137.35 65.9908 136.972 66.3291 136.637 66.6675C136.301 67.0482 135.924 67.4288 135.63 67.8518C134.791 69.0361 133.952 70.2203 133.155 71.4469C132.316 72.7158 131.435 74.027 130.554 75.2958C129.673 76.5647 128.75 77.7913 127.785 79.0179C126.862 80.1598 125.897 81.2595 124.806 82.2746C123.841 83.1628 122.751 84.0087 121.618 84.6432C120.527 85.2776 119.353 85.6583 118.136 85.7852C117.633 85.8275 117.339 85.5737 117.297 85.0661C117.297 84.8547 117.297 84.6432 117.465 84.5163C117.591 84.4317 117.758 84.3894 117.884 84.3471L117.926 84.3048C119.017 84.2202 120.024 83.8819 120.947 83.332C122.038 82.7399 123.002 82.0208 123.925 81.1749C124.932 80.2444 125.897 79.2293 126.778 78.1719C127.743 76.9877 128.666 75.8457 129.547 74.6191C130.428 73.3925 131.309 72.1659 132.19 70.8971C133.029 69.7128 133.868 68.5285 134.749 67.3442C135.168 66.7944 135.63 66.2868 136.091 65.7793C136.553 65.3563 137.014 64.9334 137.518 64.5104C137.937 64.2144 138.399 63.876 138.86 63.6222C139.238 63.453 139.657 63.2838 140.035 63.1993C140.412 63.1147 140.79 63.157 141.126 63.3684C141.545 63.6222 141.755 64.0875 141.881 64.5104C142.007 64.8911 142.049 65.2717 142.007 65.6524C142.007 66.0331 141.923 66.4137 141.839 66.7521C141.755 67.0905 141.671 67.3865 141.545 67.7249C141.461 67.9787 141.335 68.2324 141.251 68.4862C141.21 68.6977 141.126 68.9092 141.042 69.0784C140.916 69.3744 140.79 69.6705 140.664 69.9666C140.538 70.3472 140.37 70.6856 140.203 71.0663C140.077 71.4469 139.909 71.8276 139.741 72.1659C140.161 71.5315 140.622 70.8971 141.042 70.2626C141.713 69.3744 142.384 68.4439 143.097 67.598C143.811 66.7098 144.566 65.9062 145.363 65.1026C146.034 64.4258 146.789 63.7491 147.586 63.1993C148.257 62.7763 148.971 62.3956 149.768 62.2265H149.81C150.313 62.2265 150.9 62.311 151.32 62.5648C151.739 62.734 152.075 63.0301 152.285 63.453C152.453 63.8337 152.536 64.2566 152.536 64.7219C152.536 65.5255 152.285 66.3291 151.991 67.0482C151.572 67.9787 151.11 68.8669 150.607 69.7128C150.019 70.6856 149.432 71.6161 148.845 72.5889C148.215 73.4771 147.628 74.4076 147.041 75.3381C146.579 76.1417 146.118 76.9877 145.698 77.8336C145.447 78.4257 145.195 79.1024 145.195 79.7792C145.195 80.1175 145.321 80.4136 145.489 80.7097C145.698 80.9635 145.908 81.0903 146.244 81.0903C146.453 81.0903 146.621 81.0903 146.831 81.0058C146.915 80.9212 147.083 80.8789 147.167 80.8366C147.293 80.7097 147.418 80.6674 147.586 80.6674C147.67 80.6674 147.754 80.6674 147.838 80.7097ZM150.313 80.0329C150.187 79.9061 150.103 79.7792 150.019 79.6523C149.894 79.3985 149.852 79.1447 149.852 78.8487C149.852 78.7641 149.852 78.6795 149.852 78.5949C149.81 78.6795 149.726 78.7641 149.642 78.891C149.474 79.1024 149.096 79.5677 149.096 79.8638C149.096 79.9484 149.138 80.0329 149.264 80.0752C149.348 80.1598 149.474 80.2021 149.642 80.2021C149.81 80.2021 149.977 80.1598 150.103 80.1175C150.187 80.1175 150.271 80.0752 150.313 80.0329ZM175.904 73.8155C175.904 74.0693 175.82 74.323 175.61 74.4499C175.526 74.4922 175.484 74.4922 175.442 74.4922C174.939 74.4499 174.435 74.3653 173.932 74.323C173.386 74.2807 172.883 74.2807 172.38 74.2384C171.792 74.2384 171.247 74.1961 170.66 74.1961C170.114 74.1961 169.527 74.2384 168.982 74.2807C168.604 74.323 168.143 74.3653 167.765 74.5345C167.681 74.5768 167.597 74.5345 167.513 74.4922C167.345 74.3653 167.262 74.1538 167.262 73.9001C167.262 73.5194 167.681 73.3079 167.975 73.2233C168.436 73.0965 168.898 73.0542 169.359 73.0119C169.904 72.9273 170.45 72.885 170.995 72.885C171.499 72.885 171.96 72.8427 172.464 72.8427C173.009 72.8427 173.596 72.885 174.142 72.9273C174.603 72.9273 175.023 72.9696 175.442 73.0542C175.484 73.0542 175.484 73.0542 175.484 73.0542C175.652 73.0965 175.778 73.2233 175.82 73.3925C175.862 73.5194 175.904 73.6463 175.904 73.8155ZM190.293 79.0601C190.041 79.2716 189.79 79.4408 189.538 79.6523C189.202 79.9061 188.825 80.1598 188.447 80.4136C188.112 80.6251 187.734 80.8366 187.398 80.9635C187.063 81.0903 186.727 81.2172 186.391 81.2172C186.224 81.2172 186.098 81.1326 185.93 81.0903C185.762 81.0058 185.636 80.8366 185.636 80.5828C185.636 80.3713 185.72 80.1175 185.846 79.9061C185.972 79.6523 186.098 79.4408 186.224 79.187C186.266 79.1024 186.35 78.9756 186.391 78.8487C186.224 78.9756 186.014 79.1024 185.846 79.2293C185.511 79.4408 185.175 79.6523 184.839 79.9061C184.504 80.1175 184.126 80.329 183.79 80.5405C183.497 80.752 183.203 80.9212 182.868 81.0903C182.7 81.1749 182.406 81.3018 182.196 81.3018C182.029 81.3018 181.861 81.2595 181.735 81.1326C181.609 81.0058 181.525 80.8366 181.525 80.6674C181.525 80.4559 181.651 80.2444 181.777 80.0329C181.903 79.8638 182.029 79.6523 182.196 79.4831C182.238 79.3985 182.322 79.3139 182.364 79.2716C182.154 79.3562 181.987 79.4831 181.777 79.5677C181.567 79.6523 181.357 79.7792 181.148 79.8638C181.022 79.9061 180.896 79.9907 180.77 80.0329C180.602 80.0752 180.476 80.1175 180.35 80.2021C180.308 80.2021 180.267 80.2021 180.225 80.2021C180.099 80.2021 179.973 80.1598 179.931 80.0329C179.847 79.9484 179.847 79.8638 179.847 79.7792C179.847 79.5677 179.931 79.3985 180.099 79.3562C180.225 79.3139 180.35 79.2716 180.476 79.2293C180.56 79.187 180.686 79.1447 180.77 79.1024C180.77 79.1024 180.77 79.0601 180.812 79.0601C181.231 78.891 181.609 78.7218 182.029 78.468C182.364 78.2988 182.7 78.0873 183.035 77.8759C183.371 77.6644 183.707 77.4529 184.042 77.2414C184.042 77.2414 184.042 77.2414 184.084 77.1991C184.126 77.1991 184.21 77.1568 184.252 77.1568C184.336 77.1145 184.462 77.0722 184.546 77.0722C184.881 77.0722 185.007 77.326 185.007 77.6221C185.007 77.8759 184.881 78.1296 184.755 78.3411C184.588 78.5526 184.378 78.7641 184.21 78.9756C184 79.187 183.832 79.3562 183.665 79.5677C183.665 79.61 183.581 79.6946 183.539 79.7792C183.707 79.6946 183.874 79.61 183.916 79.5677C184.252 79.3139 184.63 79.1024 184.965 78.8487C185.343 78.5949 185.762 78.3411 186.14 78.0873C186.475 77.8759 186.811 77.6644 187.147 77.4952C187.272 77.3683 187.44 77.2837 187.566 77.1991C187.776 77.0722 188.028 76.9454 188.321 76.9454C188.489 76.9454 188.615 76.9877 188.699 77.1145C188.783 77.2414 188.825 77.3683 188.825 77.4952C188.825 77.749 188.699 78.0028 188.573 78.2142C188.405 78.4257 188.237 78.6795 188.07 78.891C187.902 79.1447 187.734 79.3562 187.608 79.5677C187.566 79.61 187.44 79.7792 187.44 79.8638C187.776 79.8638 188.153 79.61 188.405 79.4408C188.825 79.1447 189.244 78.7641 189.664 78.4257C190.041 78.0451 190.461 77.7067 190.88 77.3683C191.216 77.1145 191.635 76.8608 192.013 76.8608C192.223 76.8608 192.391 76.9454 192.433 77.1568C192.474 77.1991 192.474 77.2837 192.474 77.3683C192.474 77.4529 192.433 77.5798 192.391 77.6644C192.349 77.749 192.349 77.8336 192.307 77.8759C192.307 77.9182 192.265 77.9182 192.265 77.9182C192.181 78.0451 192.097 78.1719 192.013 78.2988C191.887 78.468 191.803 78.6372 191.677 78.8487C191.594 79.0179 191.468 79.2293 191.384 79.4408C191.342 79.61 191.258 79.7792 191.258 79.9061C191.258 80.1175 191.384 80.1175 191.552 80.1175C191.719 80.1175 191.929 80.0752 192.097 80.0329C192.349 79.9907 192.558 79.9061 192.768 79.8215C192.978 79.7792 193.188 79.6946 193.397 79.61C193.565 79.5677 193.733 79.4831 193.859 79.4408L194.53 79.1447C194.866 78.7218 195.201 78.2565 195.579 77.8759C196.04 77.4106 196.502 76.9877 197.005 76.6493C197.383 76.3955 197.886 76.0994 198.348 76.0994C198.474 76.0994 198.641 76.1417 198.725 76.2686C198.809 76.3109 198.893 76.3955 198.935 76.5224C199.061 76.4801 199.187 76.4801 199.313 76.4801C199.774 76.4801 200.068 76.7339 200.068 77.1991C200.068 77.6221 199.858 78.0451 199.69 78.3834C199.48 78.7641 199.187 79.1447 198.893 79.4831C199.019 79.5677 199.187 79.61 199.355 79.61C199.564 79.61 199.816 79.5677 200.026 79.5254C200.278 79.4831 200.529 79.4408 200.739 79.3562C200.949 79.3139 201.117 79.2716 201.326 79.187C201.452 79.1447 201.578 79.0601 201.662 79.0179C201.704 78.9756 201.746 78.9756 201.788 78.9756H201.83C201.998 78.9756 202.081 79.0601 202.165 79.2293C202.165 79.2716 202.207 79.3562 202.207 79.4408C202.207 79.5677 202.165 79.6523 202.081 79.7369C202.039 79.7792 201.998 79.8215 201.914 79.8638C201.075 80.2444 200.068 80.6251 199.145 80.6251C198.767 80.6251 198.39 80.4982 198.096 80.2867C197.677 80.6674 197.215 81.0058 196.712 81.3018C196.166 81.5979 195.579 81.8094 194.95 81.8094C194.656 81.8094 194.404 81.7248 194.195 81.5556C193.985 81.3864 193.901 81.0903 193.901 80.7943C193.901 80.6251 193.943 80.4982 193.943 80.329C193.775 80.4136 193.565 80.4982 193.397 80.5828C193.104 80.7097 192.81 80.7943 192.516 80.9212C192.181 81.0058 191.887 81.0903 191.594 81.1749C191.3 81.2595 191.048 81.3018 190.754 81.3018C190.209 81.3018 189.873 81.0058 189.873 80.4559C189.873 80.1175 189.999 79.7792 190.125 79.4408C190.167 79.3139 190.251 79.187 190.293 79.0601ZM197.97 77.1991C197.886 77.2414 197.802 77.2837 197.76 77.326C197.383 77.6221 197.005 77.9182 196.712 78.2565C196.376 78.5949 196.082 78.9333 195.789 79.3562C195.663 79.5677 195.453 79.9061 195.453 80.2021C195.453 80.4136 195.537 80.4982 195.747 80.4982C196.082 80.4982 196.418 80.329 196.67 80.2021C197.005 80.0329 197.299 79.8215 197.551 79.5677C197.467 79.3139 197.467 79.0601 197.467 78.7641C197.467 78.5103 197.509 78.2142 197.593 77.9605C197.677 77.7067 197.76 77.4529 197.928 77.2414C197.928 77.1991 197.97 77.1991 197.97 77.1991ZM203.088 81.1749C203.046 81.1326 203.004 81.1326 202.962 81.0903C202.837 81.048 202.711 80.9635 202.627 80.8366C202.501 80.6674 202.459 80.4559 202.459 80.2444C202.459 79.9484 202.627 79.6946 202.837 79.4831C203.004 79.3139 203.256 79.1447 203.55 79.1447C203.843 79.1447 204.137 79.2293 204.305 79.4831C204.473 79.6523 204.557 79.8638 204.557 80.1175C204.557 80.4136 204.473 80.6674 204.347 80.9212C204.179 81.2172 204.011 81.471 203.801 81.6825C203.55 81.894 203.298 82.1054 203.046 82.2746C202.795 82.4015 202.501 82.5284 202.165 82.5707C202.165 82.5707 202.165 82.5707 202.123 82.5707C201.914 82.5707 201.62 82.4861 201.62 82.19C201.62 81.9363 201.83 81.7671 202.039 81.7671C202.123 81.7671 202.165 81.7248 202.249 81.7248C202.375 81.6825 202.501 81.5979 202.627 81.5556C202.753 81.471 202.92 81.3864 203.004 81.2595C203.046 81.2172 203.088 81.2172 203.088 81.1749ZM239.041 80.2867C238.621 80.6674 238.16 81.0058 237.657 81.3018C237.111 81.5979 236.524 81.8094 235.853 81.8094C235.601 81.8094 235.349 81.7248 235.139 81.5556C234.888 81.3864 234.846 81.0903 234.846 80.7943C234.846 80.6251 234.846 80.4982 234.888 80.329C234.72 80.4136 234.51 80.4982 234.3 80.5828C234.049 80.7097 233.755 80.7943 233.419 80.9212C233.126 81.0058 232.832 81.0903 232.538 81.1749C232.245 81.2595 231.951 81.3018 231.699 81.3018C231.154 81.3018 230.818 81.0058 230.818 80.4559C230.818 80.1175 230.944 79.7792 231.07 79.4408C231.112 79.3139 231.154 79.187 231.238 79.0601C230.986 79.2716 230.734 79.4408 230.483 79.6523C230.105 79.9061 229.77 80.1598 229.35 80.4136C229.014 80.6251 228.679 80.8366 228.301 80.9635C228.008 81.0903 227.672 81.2172 227.294 81.2172C227.169 81.2172 227.001 81.1326 226.875 81.0903C226.707 81.0058 226.539 80.8366 226.539 80.5828C226.539 80.3713 226.665 80.1175 226.749 79.9061C226.875 79.6523 227.001 79.4408 227.169 79.187C227.211 79.1024 227.294 78.9756 227.336 78.8487C227.127 78.9756 226.959 79.1024 226.749 79.2293C226.413 79.4408 226.078 79.6523 225.742 79.9061C225.407 80.1175 225.071 80.329 224.735 80.5405C224.442 80.752 224.148 80.9212 223.812 81.0903C223.645 81.1749 223.351 81.3018 223.099 81.3018C222.931 81.3018 222.806 81.2595 222.68 81.1326C222.554 81.0058 222.47 80.8366 222.47 80.6674C222.47 80.4559 222.554 80.2444 222.68 80.0329C222.806 79.8638 222.973 79.6523 223.141 79.4831C223.183 79.3985 223.267 79.3139 223.309 79.2716C223.099 79.3562 222.889 79.4831 222.68 79.5677C222.554 79.6523 222.386 79.7369 222.218 79.7792C222.218 79.8215 222.218 79.8215 222.218 79.8215H222.176C221.589 80.0752 221.002 80.329 220.414 80.4982C219.911 80.7097 219.366 80.8366 218.862 81.0058C218.359 81.1326 217.855 81.2172 217.352 81.2172C216.806 81.1749 216.303 80.9212 216.303 80.329C216.303 79.9907 216.429 79.6946 216.597 79.3985C216.765 79.1024 216.932 78.8487 217.142 78.5526C217.268 78.3834 217.436 78.2142 217.562 78.0873C217.142 78.1296 216.765 78.1719 216.345 78.1719C216.219 78.3411 216.051 78.5103 215.884 78.6372C215.632 78.8487 215.38 79.0179 215.086 79.187C214.877 79.3139 214.625 79.4408 214.373 79.61C214.205 79.6946 214.038 79.7792 213.87 79.8638H213.828C213.702 79.9061 213.576 79.9907 213.408 80.0329C213.283 80.0752 213.157 80.1175 212.989 80.2021C212.947 80.2021 212.905 80.2021 212.905 80.2021C212.737 80.2021 212.653 80.1598 212.569 80.0329C212.527 79.9484 212.485 79.8638 212.485 79.7792C212.485 79.61 212.527 79.4831 212.695 79.3985C212.863 79.3139 212.989 79.2716 213.115 79.2293C213.199 79.187 213.325 79.1447 213.45 79.0601C213.87 78.891 214.331 78.6372 214.709 78.3834C214.835 78.2988 214.919 78.2142 215.045 78.1296H215.003C214.877 78.0873 214.751 78.0028 214.625 77.9182C214.625 77.9182 214.625 77.9182 214.583 77.9182C214.499 77.8336 214.457 77.749 214.415 77.6221C214.415 77.5798 214.373 77.5798 214.373 77.5375C214.373 77.2837 214.541 76.9877 214.709 76.8185C214.919 76.5647 215.17 76.3109 215.422 76.1417C215.674 75.9303 215.926 75.7611 216.219 75.6342C216.429 75.5073 216.681 75.3804 216.932 75.3804C217.142 75.3804 217.31 75.465 217.394 75.6342C217.436 75.7611 217.478 75.888 217.478 76.0149C217.478 76.184 217.394 76.3109 217.31 76.4378C217.226 76.4801 217.142 76.5647 217.1 76.607C216.974 76.7339 216.89 76.8185 216.806 76.9031C216.806 76.9031 216.806 76.9031 216.765 76.9031C216.806 76.9031 216.848 76.9031 216.89 76.9031C217.016 76.9031 217.142 76.9031 217.268 76.9031C217.478 76.9031 217.646 76.9031 217.855 76.8608C218.065 76.8608 218.275 76.8185 218.527 76.7762C218.736 76.7339 218.904 76.6916 219.114 76.607C219.156 76.607 219.198 76.607 219.198 76.607C219.366 76.607 219.491 76.6916 219.575 76.7762C219.659 76.9031 219.701 77.03 219.701 77.1568C219.701 77.4529 219.575 77.7067 219.282 77.7913C219.156 77.9182 218.988 78.0451 218.862 78.1296C218.694 78.2988 218.527 78.468 218.359 78.6795C218.191 78.8487 218.065 79.0601 217.939 79.2716C217.855 79.3985 217.771 79.5254 217.771 79.6946C217.771 79.7792 217.813 79.8215 217.855 79.8638C217.981 79.9484 218.275 79.9484 218.401 79.9484C218.82 79.9484 219.24 79.9061 219.617 79.7792C220.037 79.6946 220.414 79.5677 220.75 79.4408C220.834 79.4408 220.876 79.4408 220.918 79.3985C220.96 79.3985 221.002 79.3562 221.002 79.3562C221.169 79.3139 221.295 79.2716 221.421 79.2293C221.505 79.187 221.631 79.1447 221.715 79.1024V79.0601C222.134 78.891 222.554 78.7218 222.931 78.468C223.309 78.2988 223.645 78.0873 223.98 77.8759C224.316 77.6644 224.651 77.4529 224.987 77.2414C224.987 77.2414 224.987 77.2414 224.987 77.1991C225.071 77.1991 225.113 77.1568 225.197 77.1568C225.281 77.1145 225.365 77.0722 225.491 77.0722C225.826 77.0722 225.952 77.326 225.952 77.6221C225.952 77.8759 225.826 78.1296 225.658 78.3411C225.491 78.5526 225.323 78.7641 225.113 78.9756C224.945 79.187 224.777 79.3562 224.61 79.5677C224.61 79.61 224.526 79.6946 224.484 79.7792C224.61 79.6946 224.777 79.61 224.861 79.5677C225.197 79.3139 225.574 79.1024 225.91 78.8487C226.288 78.5949 226.707 78.3411 227.085 78.0873C227.42 77.8759 227.714 77.6644 228.05 77.4952C228.217 77.3683 228.343 77.2837 228.511 77.1991C228.721 77.0722 228.972 76.9454 229.224 76.9454C229.392 76.9454 229.56 76.9877 229.644 77.1145C229.728 77.2414 229.77 77.3683 229.77 77.4952C229.77 77.749 229.644 78.0028 229.518 78.2142C229.35 78.4257 229.182 78.6795 229.014 78.891C228.847 79.1447 228.679 79.3562 228.511 79.5677C228.469 79.61 228.385 79.7792 228.343 79.8638C228.385 79.8638 228.385 79.8638 228.385 79.8638C228.721 79.8638 229.056 79.61 229.308 79.4408C229.77 79.1447 230.189 78.7641 230.567 78.4257C230.986 78.0451 231.406 77.7067 231.825 77.3683C232.119 77.1145 232.538 76.8608 232.958 76.8608C233.168 76.8608 233.335 76.9454 233.377 77.1568C233.419 77.1991 233.419 77.2837 233.419 77.3683C233.419 77.4529 233.377 77.5798 233.335 77.6644C233.294 77.749 233.252 77.8336 233.252 77.8759C233.21 77.9182 233.21 77.9182 233.21 77.9182C233.126 78.0451 233.042 78.1719 232.958 78.2988C232.832 78.468 232.706 78.6372 232.622 78.8487C232.496 79.0179 232.413 79.2293 232.329 79.4408C232.245 79.61 232.203 79.7792 232.203 79.9061C232.203 80.1175 232.329 80.1175 232.496 80.1175C232.664 80.1175 232.874 80.0752 233.042 80.0329C233.252 79.9907 233.503 79.9061 233.713 79.8215C233.923 79.7792 234.133 79.6946 234.342 79.61C234.51 79.5677 234.636 79.4831 234.804 79.4408L235.475 79.1447C235.811 78.7218 236.146 78.2565 236.524 77.8759C236.943 77.4106 237.447 76.9877 237.95 76.6493C238.328 76.3955 238.789 76.0994 239.251 76.0994C239.418 76.0994 239.544 76.1417 239.67 76.2686C239.754 76.3109 239.838 76.3955 239.88 76.5224C240.006 76.4801 240.132 76.4801 240.258 76.4801C240.719 76.4801 241.013 76.7339 241.013 77.1991C241.013 77.6221 240.803 78.0451 240.635 78.3834C240.383 78.7641 240.132 79.1447 239.838 79.4831C239.964 79.5677 240.09 79.61 240.258 79.61C240.509 79.61 240.719 79.5677 240.971 79.5254C241.222 79.4831 241.432 79.4408 241.684 79.3562C241.894 79.3139 242.061 79.2716 242.271 79.187C242.355 79.1447 242.481 79.0601 242.607 79.0179C242.649 78.9756 242.691 78.9756 242.733 78.9756H242.775C242.9 78.9756 243.026 79.0601 243.11 79.2293C243.11 79.2716 243.152 79.3562 243.152 79.4408C243.152 79.5677 243.11 79.6523 242.984 79.7369C242.942 79.7792 242.9 79.8215 242.859 79.8638C242.019 80.2444 241.013 80.6251 240.048 80.6251C239.67 80.6251 239.335 80.4982 239.041 80.2867ZM238.873 77.1991C238.831 77.2414 238.747 77.2837 238.705 77.326C238.328 77.6221 237.95 77.9182 237.615 78.2565C237.279 78.5949 236.985 78.9333 236.734 79.3562C236.608 79.5677 236.398 79.9061 236.398 80.2021C236.398 80.4136 236.482 80.4982 236.692 80.4982C237.027 80.4982 237.321 80.329 237.615 80.2021C237.908 80.0329 238.244 79.8215 238.496 79.5677C238.412 79.3139 238.37 79.0601 238.37 78.7641C238.37 78.5103 238.412 78.2142 238.496 77.9605C238.579 77.7067 238.705 77.4529 238.873 77.2414C238.873 77.1991 238.873 77.1991 238.873 77.1991ZM262.995 77.03C263.121 77.03 263.289 76.9877 263.457 76.9877C263.75 76.9877 264.002 77.1145 264.17 77.3683C264.296 77.5798 264.38 77.7913 264.38 78.0451C264.38 78.3834 264.296 78.7218 264.17 79.0179C264.086 79.187 263.96 79.3985 263.792 79.5677C263.834 79.5677 263.834 79.5677 263.834 79.5677C264.128 79.4408 264.38 79.3139 264.631 79.1447C264.925 78.9756 265.177 78.7641 265.429 78.5103C265.638 78.2988 265.848 78.0028 266.016 77.7067C266.184 77.4106 266.435 77.03 266.855 77.03C267.023 77.03 267.191 77.0722 267.316 77.1568C267.526 77.2837 267.568 77.4952 267.568 77.7067C267.568 77.8336 267.484 77.9605 267.4 78.0873C267.316 78.2142 267.232 78.3411 267.149 78.468C267.065 78.6795 266.981 78.8487 266.897 79.0601C266.813 79.2716 266.771 79.4831 266.771 79.6946C266.771 79.8215 266.813 79.9061 266.897 79.9907C267.023 80.1175 267.232 80.1175 267.358 80.1175C267.568 80.1175 267.736 80.0752 267.946 80.0329C268.155 79.9907 268.407 79.9061 268.617 79.8215C268.827 79.7792 269.036 79.6946 269.246 79.61C269.372 79.5254 269.54 79.4831 269.708 79.4408C269.917 79.3562 270.127 79.3139 270.295 79.187C270.463 79.1024 270.631 79.0179 270.798 78.9756C270.84 78.9756 270.84 78.9756 270.882 78.9756C271.134 78.9756 271.26 79.187 271.26 79.4408C271.26 79.61 271.176 79.7792 271.008 79.8215L269.875 80.2867C269.624 80.3713 269.414 80.4982 269.204 80.5828C268.911 80.7097 268.617 80.7943 268.323 80.9212C268.03 81.0058 267.736 81.0903 267.4 81.1749C267.149 81.2595 266.855 81.3018 266.561 81.3018C266.351 81.3018 266.1 81.2595 265.89 81.1326C265.722 81.0058 265.596 80.8789 265.512 80.7097C265.429 80.5828 265.345 80.4136 265.303 80.2444C265.303 80.1598 265.261 80.0329 265.261 79.9061C265.261 79.9061 265.261 79.8638 265.261 79.8215C265.135 79.9484 264.925 80.0329 264.757 80.1598C264.212 80.4559 263.583 80.5405 262.953 80.4559C262.618 80.752 262.156 81.048 261.737 81.1749C261.359 81.2595 260.982 81.3018 260.604 81.3018C259.975 81.3018 259.471 81.048 259.429 80.4136C259.262 80.4559 259.136 80.4982 259.01 80.5828C258.716 80.7097 258.423 80.7943 258.129 80.9212C257.835 81.0058 257.5 81.0903 257.206 81.1749C256.954 81.2595 256.661 81.3018 256.367 81.3018C255.822 81.3018 255.486 81.0058 255.486 80.4559C255.486 80.1175 255.612 79.7792 255.738 79.4408C255.78 79.3139 255.864 79.187 255.906 79.1024C255.654 79.2716 255.402 79.4831 255.15 79.6523C254.815 79.9061 254.437 80.1598 254.06 80.4136C253.724 80.6251 253.346 80.8366 253.011 80.9635C252.675 81.0903 252.34 81.2172 252.004 81.2172C251.836 81.2172 251.71 81.1326 251.584 81.0903C251.375 81.0058 251.249 80.8366 251.249 80.5828C251.249 80.3713 251.333 80.1175 251.459 79.9061C251.543 79.7369 251.626 79.5677 251.752 79.3985C251.668 79.4408 251.584 79.4831 251.501 79.5677C251.165 79.8215 250.787 80.0752 250.41 80.2867C249.99 80.5405 249.571 80.752 249.109 80.9212C248.732 81.0903 248.312 81.2172 247.893 81.2172C247.599 81.2172 247.347 81.0903 247.18 80.8789C247.012 80.6674 246.928 80.4559 246.928 80.2021C246.844 79.9484 246.886 79.6946 247.012 79.4831C247.138 79.3139 247.305 79.1447 247.473 79.0601C247.683 78.9756 247.893 78.9756 248.102 79.0179C248.354 79.1024 248.48 79.3139 248.522 79.5677V79.61C248.522 79.7369 248.564 79.8215 248.648 79.9061C248.648 79.9484 248.732 79.9907 248.774 79.9907C248.942 79.9907 249.109 79.9484 249.235 79.8638C249.445 79.7792 249.655 79.6946 249.864 79.5677C250.116 79.4408 250.326 79.2716 250.578 79.1447C250.787 78.9756 251.039 78.8064 251.291 78.5949C251.459 78.468 251.626 78.3411 251.836 78.1719C252.004 78.0451 252.214 77.8759 252.382 77.7067H252.424C252.507 77.6644 252.549 77.5798 252.633 77.5375C252.759 77.4529 252.885 77.3683 253.053 77.2837C253.179 77.1991 253.304 77.1145 253.472 77.0722C253.598 76.9877 253.766 76.9454 253.934 76.9454C254.269 76.9454 254.437 77.1991 254.437 77.4952C254.437 77.749 254.311 78.0028 254.185 78.2142C254.018 78.4257 253.85 78.6795 253.682 78.891C253.514 79.1447 253.346 79.3562 253.221 79.5677C253.179 79.61 253.095 79.7792 253.053 79.8638C253.053 79.8638 253.053 79.8638 253.095 79.8638C253.388 79.8638 253.766 79.61 254.018 79.4408C254.437 79.1447 254.857 78.7641 255.276 78.4257C255.654 78.0451 256.073 77.7067 256.493 77.3683C256.828 77.1145 257.248 76.8608 257.667 76.8608C257.835 76.8608 258.003 76.9454 258.045 77.1568C258.087 77.1991 258.087 77.2837 258.087 77.3683C258.087 77.4529 258.087 77.5798 258.003 77.6644C258.003 77.749 257.961 77.8336 257.919 77.8759C257.919 77.9182 257.919 77.9182 257.877 77.9182C257.793 78.0451 257.709 78.1719 257.626 78.2988C257.5 78.468 257.416 78.6372 257.29 78.8487C257.206 79.0179 257.08 79.2293 256.996 79.4408C256.954 79.61 256.87 79.7792 256.87 79.9061C256.87 80.1175 256.996 80.1175 257.164 80.1175C257.332 80.1175 257.542 80.0752 257.709 80.0329C257.961 79.9907 258.171 79.9061 258.423 79.8215C258.632 79.7792 258.842 79.6946 259.052 79.61C259.178 79.5254 259.346 79.4831 259.471 79.4408C259.555 79.3985 259.597 79.3985 259.639 79.3985C259.723 79.187 259.807 79.0179 259.933 78.8487C260.227 78.2988 260.604 77.7913 261.024 77.326C261.401 76.8608 261.821 76.3955 262.24 75.9726C262.45 75.7611 262.911 75.3804 263.205 75.2958H263.247C263.289 75.2958 263.331 75.2535 263.415 75.2535C263.499 75.2112 263.625 75.2112 263.709 75.2112C263.876 75.2112 264.002 75.2535 264.128 75.3804C264.212 75.465 264.296 75.5919 264.296 75.7611C264.296 75.9303 264.128 76.0572 264.002 76.1417C263.876 76.2686 263.75 76.3955 263.583 76.5224C263.415 76.6493 263.247 76.7762 263.121 76.9454C263.079 76.9877 263.037 77.03 262.995 77.03ZM261.989 80.0329C261.863 79.9061 261.779 79.7792 261.695 79.6523C261.569 79.3985 261.527 79.1447 261.527 78.8487C261.527 78.7641 261.527 78.6795 261.527 78.5949C261.443 78.6795 261.401 78.7641 261.317 78.891C261.191 78.9756 261.108 79.1024 261.024 79.2293C261.066 79.3139 261.066 79.3562 261.066 79.4408C261.066 79.61 260.982 79.7792 260.814 79.8215L260.772 79.8638C260.772 79.9484 260.814 80.0329 260.898 80.0752C261.024 80.1598 261.149 80.2021 261.317 80.2021C261.485 80.2021 261.653 80.1598 261.779 80.1175C261.863 80.1175 261.905 80.0752 261.989 80.0329ZM281.37 80.1598C280.951 80.329 280.489 80.4559 280.07 80.6251C279.482 80.8366 278.895 81.0058 278.308 81.1749C277.804 81.3018 277.217 81.4287 276.714 81.4287C276.336 81.4287 276 81.3441 275.707 81.1326C275.413 80.9212 275.287 80.6251 275.287 80.2867C275.287 79.9907 275.371 79.6946 275.581 79.4408C275.707 79.2293 275.916 79.0179 276.126 78.8487C276.21 78.7641 276.294 78.7218 276.378 78.6372C276.294 78.5949 276.21 78.5949 276.084 78.5949C275.916 78.5526 275.665 78.468 275.539 78.2988C275.455 78.1719 275.413 78.0451 275.413 77.9182C275.413 77.7067 275.455 77.5375 275.581 77.4106C275.623 77.326 275.707 77.2414 275.791 77.1991C275.791 77.1568 275.791 77.1568 275.833 77.1568C276.21 76.9031 276.63 76.6916 277.049 76.4801C277.511 76.2263 277.972 76.0572 278.434 75.8457C278.853 75.7188 279.273 75.5496 279.734 75.4227C279.986 75.3804 280.321 75.2535 280.573 75.2535C280.783 75.2535 280.993 75.3381 281.202 75.4227C281.454 75.5496 281.538 75.8034 281.538 76.0572C281.538 76.2263 281.454 76.3955 281.37 76.5224C281.244 76.6493 281.118 76.7339 280.993 76.8185C280.867 76.9031 280.699 76.9877 280.573 77.03C280.405 77.1145 280.238 77.1145 280.112 77.1145C279.986 77.1145 279.86 77.1145 279.734 77.0722C279.566 76.9877 279.482 76.8185 279.482 76.6493C279.482 76.5647 279.482 76.5224 279.482 76.4378C279.273 76.4801 279.105 76.5647 278.895 76.6493C278.643 76.7339 278.392 76.8185 278.14 76.9454C277.93 77.0722 277.678 77.1568 277.469 77.2837C277.427 77.326 277.385 77.326 277.343 77.326C277.427 77.3683 277.469 77.3683 277.553 77.3683C277.636 77.3683 277.762 77.3683 277.888 77.3683C277.972 77.3683 278.056 77.3683 278.098 77.3683C278.14 77.3683 278.14 77.3683 278.14 77.3683C278.308 77.4106 278.559 77.4106 278.685 77.5798C278.769 77.7067 278.769 77.8759 278.769 78.0028C278.769 78.1296 278.727 78.2565 278.685 78.3834C278.601 78.5949 278.392 78.6795 278.182 78.7218C277.846 78.8064 277.511 78.9333 277.217 79.1024C277.007 79.2716 276.839 79.4408 276.839 79.6946C276.839 79.8638 276.965 79.9484 277.091 79.9907C277.301 80.0752 277.511 80.1598 277.72 80.1598C278.182 80.1598 278.643 80.0752 279.063 79.9484C279.524 79.8215 279.986 79.6946 280.447 79.5677C280.741 79.4408 281.077 79.3562 281.37 79.2293C281.496 78.7641 281.748 78.3411 282.083 77.9605C282.587 77.4529 283.216 76.9877 283.845 76.607C284.475 76.2686 285.188 75.9726 285.859 75.7188C286.321 75.5919 286.95 75.3804 287.453 75.3804C287.705 75.3804 287.957 75.465 288.208 75.5919C288.502 75.7611 288.67 76.0572 288.67 76.3955V76.4378C288.67 76.6493 288.544 76.8185 288.418 76.9877C288.292 77.1568 288.124 77.2837 287.957 77.4106C287.789 77.5375 287.579 77.6644 287.411 77.749C287.243 77.8336 287.076 77.9182 286.866 77.9182C286.698 77.9182 286.53 77.8336 286.446 77.7067C286.362 77.5798 286.321 77.4529 286.321 77.2837C286.321 77.1145 286.404 76.9454 286.53 76.8608C286.614 76.8185 286.656 76.7762 286.74 76.7339C286.824 76.6493 286.866 76.607 286.95 76.5647C286.992 76.5224 287.034 76.4801 287.034 76.4378C286.614 76.4378 286.195 76.5647 285.859 76.7339C285.398 76.9454 284.936 77.1991 284.517 77.4952C284.139 77.7913 283.761 78.1296 283.468 78.5103C283.258 78.7641 283.048 79.0601 283.048 79.3985C283.048 79.4408 283.09 79.4831 283.132 79.5254C283.174 79.5677 283.258 79.5677 283.384 79.5677C283.594 79.5677 283.845 79.5254 284.055 79.4408C284.307 79.3562 284.559 79.2293 284.81 79.0601C285.062 78.9333 285.314 78.7641 285.565 78.5949C285.775 78.468 285.985 78.3411 286.153 78.1719C286.279 78.0451 286.404 78.0028 286.572 78.0028C286.782 78.0028 286.95 78.1719 286.95 78.4257C286.95 78.5949 286.866 78.7641 286.74 78.9333C286.321 79.4831 285.859 80.0752 285.398 80.6251C285.062 81.048 284.684 81.5133 284.349 81.9363C284.81 81.894 285.272 81.8517 285.775 81.8094C286.488 81.7248 287.243 81.6825 287.999 81.6825C288.502 81.6825 289.005 81.7248 289.509 81.7248C289.802 81.7248 290.096 81.7671 290.39 81.7671C290.683 81.7671 291.019 81.8094 291.271 81.894C291.523 82.0208 291.648 82.3169 291.648 82.613C291.648 82.9514 291.481 83.2051 291.103 83.2474C290.893 83.2897 290.683 83.332 290.474 83.332C290.264 83.332 290.012 83.332 289.802 83.2897C289.383 83.2897 288.963 83.2897 288.586 83.2474C288.082 83.2474 287.579 83.2474 287.076 83.2051C286.614 83.2051 286.153 83.2051 285.691 83.2051C285.23 83.2051 284.81 83.2051 284.391 83.2474C284.013 83.2474 283.636 83.2897 283.258 83.3743C282.293 84.6009 281.328 85.8275 280.363 87.054C279.44 88.2383 278.476 89.3803 277.469 90.48C276.672 91.3682 275.833 92.2141 274.952 92.9754C274.406 93.3984 273.609 93.9905 272.938 93.9905C272.476 93.9905 272.099 93.8636 271.805 93.5253C271.512 93.2292 271.386 92.8063 271.386 92.3833C271.386 91.4105 271.721 90.3954 272.183 89.5495C272.728 88.4075 273.525 87.4347 274.448 86.5465C275.539 85.5314 276.797 84.6432 278.14 83.9665C279.65 83.1205 281.328 82.5707 283.048 82.19C283.468 81.6402 283.845 81.0903 284.223 80.5405C284.265 80.4982 284.349 80.4136 284.433 80.2867C284.391 80.2867 284.391 80.329 284.391 80.329C284.181 80.4136 283.971 80.4982 283.803 80.5828C283.594 80.6674 283.342 80.7097 283.132 80.7943C282.922 80.8366 282.671 80.8789 282.461 80.8789C282.167 80.8789 281.916 80.7943 281.664 80.6251C281.496 80.4982 281.412 80.329 281.37 80.1598ZM297.144 80.2867H297.102C296.892 80.3713 296.683 80.4982 296.473 80.5828C296.179 80.7097 295.885 80.7943 295.592 80.9212C295.298 81.0058 294.963 81.0903 294.669 81.1749C294.417 81.2595 294.124 81.3018 293.83 81.3018C293.578 81.3018 293.326 81.2595 293.159 81.1326C292.991 81.0058 292.865 80.8789 292.781 80.7097C292.697 80.5828 292.613 80.4136 292.571 80.2444C292.571 80.1598 292.529 80.0329 292.529 79.9061C292.529 79.7792 292.529 79.6946 292.571 79.5677C292.236 79.8215 291.858 80.0329 291.481 80.2444C291.103 80.4559 290.683 80.6674 290.264 80.8366C289.886 81.0058 289.467 81.1326 289.047 81.1326C288.754 81.1326 288.544 81.0058 288.334 80.752C288.166 80.5405 288.082 80.329 288.082 80.0329C288.082 79.7369 288.208 79.4831 288.334 79.2293C288.502 78.9333 288.712 78.6795 288.922 78.4257C289.131 78.1719 289.341 77.9605 289.593 77.749C289.719 77.6221 289.886 77.4529 290.012 77.326C290.096 77.2414 290.18 77.1991 290.264 77.1991H290.348C290.516 77.1991 290.642 77.2837 290.767 77.3683C290.809 77.4529 290.851 77.5375 290.851 77.6221C290.851 77.8336 290.725 78.0028 290.6 78.1296C290.474 78.2565 290.348 78.4257 290.222 78.5526C290.054 78.7218 289.928 78.891 289.844 79.0601C289.761 79.187 289.719 79.3562 289.719 79.5254C289.719 79.61 289.719 79.6946 289.802 79.7792C289.844 79.8215 289.886 79.9061 289.928 79.9061C290.306 79.9061 290.683 79.6946 290.977 79.5254C291.481 79.2716 291.9 78.9333 292.32 78.6372C292.865 78.2142 293.41 77.749 293.914 77.326C293.956 77.2837 294.04 77.2414 294.082 77.2414C294.249 77.2414 294.375 77.2837 294.501 77.326C294.711 77.4529 294.753 77.6644 294.753 77.8336C294.753 77.9605 294.711 78.0873 294.669 78.2142C294.627 78.2142 294.627 78.2142 294.627 78.2142C294.543 78.3411 294.459 78.5949 294.375 78.7218C294.291 78.9756 294.207 79.2293 294.207 79.4831C294.207 79.5677 294.249 79.61 294.249 79.6946C294.249 79.7369 294.249 79.8215 294.291 79.9061C294.333 79.9484 294.375 80.0329 294.417 80.0752C294.459 80.1175 294.585 80.1175 294.627 80.1175C294.795 80.1175 295.005 80.0752 295.172 80.0329C295.424 79.9907 295.634 79.9061 295.885 79.8215C296.095 79.7792 296.305 79.6946 296.515 79.61C296.641 79.5677 296.808 79.4831 296.934 79.4408L297.438 79.2293C297.522 79.187 297.606 79.1024 297.689 79.0601C297.815 79.0179 297.941 78.9756 298.025 78.9756C298.067 78.9756 298.109 78.9756 298.109 78.9756C298.193 78.9756 298.235 78.9756 298.319 79.0179C298.57 79.1024 298.696 79.3139 298.738 79.5677V79.61C298.738 79.7369 298.78 79.8215 298.864 79.9061C298.906 79.9484 298.948 79.9907 298.99 79.9907C299.158 79.9907 299.326 79.9484 299.451 79.8638C299.661 79.7792 299.871 79.6946 300.081 79.5677C300.332 79.4408 300.542 79.2716 300.794 79.1447C301.004 78.9756 301.255 78.8064 301.507 78.5949C301.675 78.468 301.843 78.3411 302.052 78.1719C302.22 78.0451 302.43 77.8759 302.598 77.7067H302.64C302.724 77.6644 302.766 77.5798 302.849 77.5375C302.975 77.4529 303.101 77.3683 303.269 77.2837C303.395 77.1991 303.521 77.1145 303.689 77.0722C303.814 76.9877 303.982 76.9454 304.15 76.9454C304.486 76.9454 304.653 77.1991 304.653 77.4952C304.653 77.749 304.528 78.0028 304.402 78.2142C304.234 78.4257 304.066 78.6795 303.898 78.891C303.73 79.1447 303.563 79.3562 303.437 79.5677C303.395 79.61 303.311 79.7792 303.269 79.8638C303.269 79.8638 303.269 79.8638 303.311 79.8638C303.605 79.8638 303.982 79.61 304.234 79.4408C304.653 79.1447 305.073 78.7641 305.492 78.4257C305.87 78.0451 306.29 77.7067 306.709 77.3683C307.045 77.1145 307.464 76.8608 307.884 76.8608C308.051 76.8608 308.219 76.9454 308.261 77.1568C308.303 77.1991 308.303 77.2837 308.303 77.3683C308.303 77.4529 308.303 77.5798 308.219 77.6644C308.219 77.749 308.177 77.8336 308.135 77.8759C308.135 77.9182 308.135 77.9182 308.093 77.9182C308.01 78.0451 307.926 78.1719 307.842 78.2988C307.716 78.468 307.632 78.6372 307.506 78.8487C307.422 79.0179 307.338 79.2293 307.212 79.4408C307.171 79.61 307.129 79.7792 307.129 79.9061C307.129 80.1175 307.212 80.1175 307.38 80.1175C307.548 80.1175 307.758 80.0752 307.926 80.0329C308.177 79.9907 308.387 79.9061 308.639 79.8215C308.849 79.7792 309.058 79.6946 309.268 79.61C309.394 79.5254 309.562 79.4831 309.688 79.4408C309.939 79.3562 310.191 79.2293 310.443 79.1447C310.569 79.0601 310.694 79.0179 310.82 78.9756H310.862C311.156 78.9756 311.282 79.187 311.282 79.4408C311.282 79.61 311.198 79.7792 311.03 79.8215L309.855 80.2867C309.646 80.3713 309.436 80.4982 309.226 80.5828C308.932 80.7097 308.639 80.7943 308.345 80.9212C308.051 81.0058 307.716 81.0903 307.422 81.1749C307.171 81.2595 306.877 81.3018 306.583 81.3018C306.038 81.3018 305.744 81.0058 305.744 80.4559C305.744 80.1175 305.828 79.7792 305.954 79.4408C305.996 79.3139 306.08 79.187 306.122 79.1024C305.87 79.2716 305.618 79.4831 305.367 79.6523C305.031 79.9061 304.653 80.1598 304.276 80.4136C303.94 80.6251 303.563 80.8366 303.227 80.9635C302.891 81.0903 302.556 81.2172 302.22 81.2172C302.052 81.2172 301.927 81.1326 301.801 81.0903C301.591 81.0058 301.465 80.8366 301.465 80.5828C301.465 80.3713 301.549 80.1175 301.675 79.9061C301.759 79.7369 301.843 79.5677 301.968 79.3985C301.885 79.4408 301.801 79.4831 301.717 79.5677C301.381 79.8215 301.004 80.0752 300.626 80.2867C300.207 80.5405 299.787 80.752 299.326 80.9212C298.948 81.0903 298.528 81.2172 298.109 81.2172C297.815 81.2172 297.564 81.0903 297.396 80.8789C297.27 80.7097 297.186 80.4982 297.144 80.2867ZM314.848 78.3834C314.764 78.468 314.68 78.5949 314.596 78.6795C314.512 78.7641 314.344 78.8487 314.176 78.8487C313.967 78.8487 313.799 78.7641 313.715 78.5103C313.673 78.3834 313.673 78.2565 313.673 78.0873C313.673 78.0451 313.673 78.0028 313.715 77.9605C314.302 77.1145 314.89 76.2686 315.477 75.4227C315.98 74.7037 316.484 74.027 316.987 73.3502C317.407 72.7581 317.868 72.1659 318.33 71.5738C318.791 70.9817 319.295 70.3895 319.756 69.8397C320.301 69.163 320.889 68.5285 321.434 67.8518C322.105 67.0905 322.819 66.3291 323.49 65.5255C323.532 65.5255 323.532 65.5255 323.532 65.5255C323.658 65.3986 323.783 65.314 323.909 65.2294C324.035 65.1872 324.119 65.1449 324.245 65.1449C324.371 65.1449 324.539 65.1872 324.664 65.2294C324.874 65.314 325 65.4832 325 65.737C325 65.9908 324.874 66.16 324.706 66.3291C323.574 67.598 322.399 68.8669 321.266 70.178C320.763 70.7702 320.217 71.4046 319.714 71.9968C319.169 72.6735 318.623 73.3502 318.078 74.027C317.491 74.746 316.945 75.465 316.4 76.184C315.855 76.9031 315.351 77.6644 314.848 78.3834ZM313.044 79.8638C313.212 79.8215 313.421 79.8638 313.589 79.9484C313.673 80.0329 313.799 80.1175 313.841 80.2444C313.925 80.3713 313.967 80.5405 313.967 80.6674C313.967 80.6674 313.967 80.6674 313.967 80.7097C313.967 81.0903 313.757 81.4287 313.463 81.7248C313.212 81.9363 312.918 82.1054 312.582 82.1054C312.331 82.1054 312.079 82.0208 311.911 81.8517C311.743 81.6825 311.659 81.5133 311.659 81.3018C311.659 80.9212 311.827 80.5828 312.079 80.2867C312.331 80.0329 312.666 79.8638 313.044 79.8638ZM151.068 79.3985C151.194 79.2716 151.362 79.1024 151.446 78.9333C151.53 78.8064 151.614 78.6372 151.614 78.468C151.614 78.2988 151.572 78.2565 151.362 78.2565C151.236 78.2565 151.11 78.3411 151.026 78.468C150.9 78.6372 150.816 78.8064 150.816 78.9756C150.816 79.187 150.9 79.3139 151.068 79.3985ZM198.474 78.6795C198.599 78.5103 198.725 78.3411 198.809 78.2142C198.935 78.0451 199.061 77.7913 199.061 77.6221C199.061 77.4952 198.977 77.5375 198.893 77.5375C198.767 77.5375 198.683 77.6644 198.641 77.749C198.516 77.9605 198.474 78.2142 198.474 78.468C198.474 78.5526 198.474 78.5949 198.474 78.6795ZM239.418 78.6795C239.544 78.5103 239.67 78.3411 239.754 78.2142C239.838 78.0451 240.006 77.7913 240.006 77.6221C240.006 77.4952 239.88 77.5375 239.796 77.5375C239.712 77.5375 239.628 77.6644 239.586 77.749C239.46 77.9605 239.418 78.2142 239.418 78.468C239.418 78.5526 239.418 78.5949 239.418 78.6795ZM262.744 79.3985C262.869 79.2716 262.995 79.1024 263.121 78.9333C263.205 78.8064 263.289 78.6372 263.289 78.468C263.289 78.2988 263.247 78.2565 263.037 78.2565C262.869 78.2565 262.786 78.3411 262.66 78.468C262.576 78.6372 262.492 78.8064 262.492 78.9756C262.492 79.187 262.576 79.3139 262.744 79.3985ZM281.958 83.6281C280.825 83.8819 279.776 84.2625 278.727 84.7701C277.636 85.3199 276.588 85.9543 275.665 86.8003C274.868 87.5193 274.196 88.3229 273.693 89.2957C273.274 90.0993 273.022 90.9452 273.022 91.8757C273.022 92.0872 273.064 92.2987 273.148 92.4679C273.19 92.5948 273.274 92.6371 273.399 92.6371C273.567 92.6371 273.987 92.341 274.113 92.2564C274.616 91.8757 275.035 91.4528 275.497 91.0721C276.042 90.48 276.63 89.9301 277.133 89.338C277.762 88.619 278.392 87.9422 278.979 87.2655C279.566 86.5465 280.196 85.8275 280.783 85.0661C281.16 84.6009 281.58 84.0933 281.958 83.6281Z" fill="#FEFEFE"/>
</g>
<defs>
<clipPath id="clip0">
<rect width="325" height="94" fill="white"/>
</clipPath>
</defs>
</svg>
